<?xml version="1.0" encoding="iso-8859-1"?>
<!-- Uploaded to: SVG Repo, www.svgrepo.com, Generator: SVG Repo Mixer Tools -->
<svg height="800px" width="800px" version="1.1" id="Layer_1" xmlns="http://www.w3.org/2000/svg" xmlns:xlink="http://www.w3.org/1999/xlink" 
	 viewBox="0 0 496.158 496.158" xml:space="preserve">
<!-- <path style="fill:#FFFFFF;" d="M248.082,0.003C111.07,0.003,0,111.063,0,248.085c0,137.001,111.07,248.07,248.082,248.07
	c137.006,0,248.076-111.069,248.076-248.07C496.158,111.062,385.088,0.003,248.082,0.003z"/> -->
<path style="fill:#4534B8;" d="M459.961,118.989c-11.83-19.375-26.25-36.991-42.766-52.389c-9.557-8.91-19.809-17.083-30.682-24.409
	c-5.765-3.883-11.708-7.518-17.803-10.917l-65.19-9.889c-1.105,0-4.177-4.337-9.091-17.042c-15.017-2.839-30.506-4.341-46.348-4.341
	c-15.134,0-29.949,1.36-44.336,3.955c-4.572,11.979-8.33,17.428-9.424,17.428l-70.899,12.177c-4.69,2.731-9.288,5.605-13.777,8.629
	c-5.883,3.963-11.577,8.182-17.087,12.622c-22.274,17.946-41.389,39.654-56.36,64.174c12.374,11.067,22.906,20.344,30.141,26.679
	c10.277,27.672,61.678,174.796,46.192,310.197c38.966,25.471,85.524,40.292,135.551,40.292c50.554,0,97.566-15.136,136.78-41.104
	c-16.536-140.063,39.332-290.669,47.433-311.554C439.367,137.293,448.932,128.851,459.961,118.989z"/>
<g>
	<path style="fill:#36289A;" d="M304.414,326.948c0,0-4.357-18.298-12.744-29.603c-0.988-1.327-11.213-11.932-16.949-4.711
		c-2.092,2.632,2.768,11.203,5.201,21.257c2.541,10.466,3.531,21.391,6.422,25.431c5.689,7.893,24.381,26.282,24.381,26.282
		l8.18-25.735L304.414,326.948z"/>
	<polygon style="fill:#36289A;" points="374.363,290.434 357.799,288.697 331.596,288.628 298.525,294.857 308.502,361.345 
		381.924,335.345 	"/>
	<path style="fill:#36289A;" d="M316.004,297.423l-11.119-60.456c-0.945-5.15-5.445-8.637-10.045-7.793
		c-4.607,0.848-7.566,5.711-6.627,10.854l11.121,60.459c0.943,5.15,5.441,8.634,10.053,7.786
		C313.986,307.426,316.951,302.57,316.004,297.423z"/>
	<path style="fill:#36289A;" d="M336.062,294.236L323.4,219.024c-0.869-5.16-5.463-8.693-10.256-7.887
		c-4.801,0.806-7.986,5.652-7.117,10.809l12.66,75.214c0.869,5.166,5.463,8.689,10.262,7.881
		C333.748,304.233,336.93,299.398,336.062,294.236z"/>
	<path style="fill:#36289A;" d="M355.225,290.78l-9.887-63.667c-0.807-5.171-5.205-8.781-9.832-8.06
		c-4.625,0.718-7.729,5.494-6.922,10.664l9.891,63.667c0.797,5.177,5.207,8.783,9.83,8.062
		C352.93,300.725,356.025,295.957,355.225,290.78z"/>
	<path style="fill:#36289A;" d="M374.18,289.685l-4.652-33.021c-0.729-5.181-4.857-8.885-9.217-8.273
		c-4.357,0.619-7.303,5.315-6.574,10.497l4.646,33.026c0.73,5.176,4.859,8.881,9.221,8.268
		C371.963,299.569,374.91,294.87,374.18,289.685z"/>
	<path style="fill:#36289A;" d="M382.715,373.431c1.512-0.251,0.846-28.363-0.725-37.703l-1.486-8.824
		c-1.57-9.341-5.309-11.998-14.648-10.426l-49.045,8.254c-9.342,1.571-10.453,14.594-8.879,23.934l2.916,17.302
		c2.416,4.094,7.982,18.217,10.777,17.746l12.525,97.095c21.091-7.803,40.826-18.393,58.769-31.319L382.715,373.431z"/>
	<path style="fill:#36289A;" d="M179.348,324.732l-49.045-8.254c-9.34-1.572-13.078,1.085-14.648,10.426l-1.486,8.824
		c-1.57,9.34-2.236,37.452-0.725,37.703l-10.205,76.059c17.942,12.925,37.679,23.516,58.769,31.318l12.525-97.094
		c2.795,0.471,8.361-13.652,10.777-17.746l2.916-17.302C189.801,339.326,188.689,326.302,179.348,324.732z"/>
	<path style="fill:#36289A;" d="M221.437,292.634c-5.736-7.221-15.961,3.384-16.949,4.711
		c-8.387,11.305-12.744,29.603-12.744,29.603l-14.49,12.921l8.18,25.735c0,0,18.691-18.389,24.381-26.282
		c2.891-4.04,3.881-14.964,6.422-25.431C218.67,303.837,223.529,295.267,221.437,292.634z"/>
	<polygon style="fill:#36289A;" points="164.562,288.628 138.359,288.697 121.795,290.434 114.234,335.345 187.656,361.345 
		197.633,294.857 	"/>
	<path style="fill:#36289A;" d="M201.318,229.175c-4.6-0.844-9.1,2.643-10.045,7.793l-11.119,60.456
		c-0.947,5.146,2.018,10.003,6.617,10.851c4.611,0.849,9.109-2.635,10.053-7.786l11.121-60.459
		C208.885,234.886,205.926,230.023,201.318,229.175z"/>
	<path style="fill:#36289A;" d="M183.014,211.137c-4.793-0.807-9.387,2.727-10.256,7.887l-12.662,75.211
		c-0.867,5.164,2.314,9.998,7.113,10.805c4.799,0.808,9.393-2.715,10.262-7.881l12.66-75.214
		C191,216.789,187.814,211.942,183.014,211.137z"/>
	<path style="fill:#36289A;" d="M160.652,219.053c-4.627-0.721-9.025,2.889-9.832,8.06l-9.887,63.667
		c-0.801,5.177,2.295,9.946,6.92,10.667c4.623,0.721,9.033-2.885,9.83-8.062l9.891-63.667
		C168.381,224.546,165.277,219.771,160.652,219.053z"/>
	<path style="fill:#36289A;" d="M135.848,248.391c-4.359-0.612-8.488,3.092-9.217,8.273l-4.652,33.021
		c-0.73,5.185,2.217,9.884,6.576,10.498c4.361,0.613,8.49-3.092,9.221-8.268l4.646-33.026
		C143.15,253.705,140.205,249.009,135.848,248.391z"/>
</g>
</svg>